<svg width="95" height="40" viewBox="0 0 95 40" fill="none" xmlns="http://www.w3.org/2000/svg">
<path d="M0 20C0 8.95431 8.9543 0 20 0H74.2656C85.3113 0 94.2656 8.95431 94.2656 20C94.2656 31.0457 85.3113 40 74.2656 40H20C8.95431 40 0 31.0457 0 20Z" fill="#DCFCE7"/>
<path d="M16.21 16.604V16.289C16.21 16.142 16.231 16.058 16.336 15.995L18.247 15.386C18.352 15.323 18.457 15.281 18.583 15.281H19.528C19.654 15.281 19.717 15.365 19.717 15.491V24.29C19.717 24.416 19.654 24.5 19.528 24.5H18.373C18.268 24.5 18.184 24.416 18.184 24.29V16.814H16.399C16.273 16.814 16.21 16.73 16.21 16.604ZM26.573 24.29V16.331C26.573 16.205 26.657 16.121 26.762 16.121H27.917C28.043 16.121 28.106 16.205 28.106 16.331V17.213C28.904 16.415 29.849 15.911 30.962 15.911C32.201 15.911 33.083 16.394 33.503 17.381C34.364 16.478 35.372 15.911 36.611 15.911C38.417 15.911 39.446 16.919 39.446 18.977V24.29C39.446 24.416 39.383 24.5 39.257 24.5H38.102C37.976 24.5 37.913 24.416 37.913 24.311V19.292C37.913 17.948 37.367 17.276 36.212 17.276C35.309 17.276 34.532 17.738 33.755 18.473C33.776 18.641 33.776 18.809 33.776 18.977V24.29C33.776 24.416 33.713 24.5 33.587 24.5H32.432C32.306 24.5 32.243 24.416 32.243 24.311V19.292C32.243 17.948 31.697 17.276 30.542 17.276C29.639 17.276 28.883 17.738 28.106 18.452V24.29C28.106 24.416 28.043 24.5 27.917 24.5H26.762C26.657 24.5 26.573 24.416 26.573 24.29ZM45.1434 14.903C43.8204 14.903 42.8964 13.937 42.8964 12.635C42.8964 11.417 43.8204 10.451 45.1434 10.451C46.5084 10.451 47.4534 11.438 47.4534 12.635C47.4534 13.937 46.5084 14.903 45.1434 14.903ZM45.1644 13.937C45.8994 13.937 46.4034 13.37 46.4034 12.635C46.4034 11.963 45.8994 11.417 45.1644 11.417C44.4294 11.417 43.9464 11.963 43.9464 12.635C43.9464 13.37 44.4294 13.937 45.1644 13.937ZM49.0284 24.038L48.4404 24.542C48.2724 24.689 48.0204 24.71 47.7894 24.5L47.0964 23.744C46.0254 24.521 45.2484 24.668 44.3244 24.668C42.6444 24.668 41.4894 23.744 41.4894 22.043C41.4894 20.678 42.4134 19.586 44.7654 19.586H46.7394V19.061C46.7394 17.759 46.2354 17.234 44.9754 17.234C43.9884 17.234 43.0434 17.57 42.2874 17.927C42.0984 18.011 42.0144 17.969 41.9514 17.78L41.6784 17.108C41.5944 16.919 41.6364 16.835 41.8254 16.73C42.7494 16.268 43.8624 15.911 45.2064 15.911C47.2644 15.911 48.2934 16.835 48.2934 18.935V22.442C48.2934 22.799 48.3354 22.925 48.5454 23.156L49.0494 23.66C49.1754 23.786 49.1544 23.933 49.0284 24.038ZM44.6814 23.555C45.3534 23.555 45.9204 23.387 46.7394 22.82V20.468H45.0594C43.5054 20.468 43.0014 21.035 43.0014 22.001C43.0014 22.946 43.5684 23.555 44.6814 23.555ZM51.1209 24.29V16.331C51.1209 16.205 51.2049 16.121 51.3099 16.121H52.4649C52.5909 16.121 52.6539 16.205 52.6539 16.331V17.213C53.4939 16.394 54.5229 15.911 55.7199 15.911C57.6309 15.911 58.7439 16.919 58.7439 18.977V24.29C58.7439 24.416 58.6809 24.5 58.5549 24.5H57.3999C57.2739 24.5 57.2109 24.416 57.2109 24.311V19.292C57.2109 17.948 56.6019 17.276 55.2999 17.276C54.3129 17.276 53.4939 17.717 52.6539 18.473V24.29C52.6539 24.416 52.5909 24.5 52.4649 24.5H51.3099C51.2049 24.5 51.1209 24.416 51.1209 24.29ZM68.6413 23.996C67.7593 24.5 66.4573 24.71 65.4283 24.71C62.4673 24.71 60.8083 23.009 60.8083 20.3C60.8083 17.591 62.4253 15.911 64.9453 15.911C67.1713 15.911 68.6413 17.402 68.6413 19.628C68.6413 19.796 68.6413 20.111 68.5993 20.279C68.5783 20.468 68.5153 20.51 68.3683 20.51H62.3833C62.4883 22.337 63.6223 23.471 65.5753 23.471C66.4573 23.471 67.4653 23.177 68.1373 22.862C68.3263 22.778 68.4103 22.82 68.4943 23.009L68.7463 23.702C68.8093 23.849 68.7883 23.933 68.6413 23.996ZM64.9243 17.108C63.5803 17.108 62.6353 18.095 62.4253 19.607H67.1923C67.0873 17.906 66.2473 17.108 64.9243 17.108ZM78.4084 24.29C78.4084 24.416 78.3244 24.5 78.2194 24.5H77.0644C76.9384 24.5 76.8754 24.416 76.8754 24.29V23.534C76.1404 24.269 75.2584 24.71 73.9984 24.71C71.7514 24.71 70.4284 23.198 70.4284 20.3C70.4284 17.528 71.7304 15.911 74.0194 15.911C75.0484 15.911 76.0984 16.268 76.8754 16.94V10.43C76.8754 10.304 76.9384 10.22 77.0644 10.22H78.2194C78.3244 10.22 78.4084 10.304 78.4084 10.43V24.29ZM74.3554 17.213C72.7174 17.213 72.0454 18.41 72.0454 20.3C72.0454 22.19 72.7384 23.408 74.3764 23.408C75.2584 23.408 76.0774 23.051 76.8754 22.19V18.305C76.0354 17.549 75.3214 17.213 74.3554 17.213Z" fill="#008236"/>
</svg>
