<svg width="60" height="40" viewBox="0 0 60 40" fill="none" xmlns="http://www.w3.org/2000/svg">
<path d="M0 20C0 8.95431 8.95431 0 20 0H39.5703C50.616 0 59.5703 8.95431 59.5703 20C59.5703 31.0457 50.616 40 39.5703 40H20C8.95431 40 0 31.0457 0 20Z" fill="#DCFCE7"/>
<path d="M16.21 18.604V18.289C16.21 18.142 16.231 18.058 16.336 17.995L18.247 17.386C18.352 17.323 18.457 17.281 18.583 17.281H19.528C19.654 17.281 19.717 17.365 19.717 17.491V26.29C19.717 26.416 19.654 26.5 19.528 26.5H18.373C18.268 26.5 18.184 26.416 18.184 26.29V18.814H16.399C16.273 18.814 16.21 18.73 16.21 18.604ZM29.66 16.903C28.337 16.903 27.413 15.937 27.413 14.635C27.413 13.417 28.337 12.451 29.66 12.451C31.025 12.451 31.97 13.438 31.97 14.635C31.97 15.937 31.025 16.903 29.66 16.903ZM29.681 15.937C30.416 15.937 30.92 15.37 30.92 14.635C30.92 13.963 30.416 13.417 29.681 13.417C28.946 13.417 28.463 13.963 28.463 14.635C28.463 15.37 28.946 15.937 29.681 15.937ZM33.545 26.038L32.957 26.542C32.789 26.689 32.537 26.71 32.306 26.5L31.613 25.744C30.542 26.521 29.765 26.668 28.841 26.668C27.161 26.668 26.006 25.744 26.006 24.043C26.006 22.678 26.93 21.586 29.282 21.586H31.256V21.061C31.256 19.759 30.752 19.234 29.492 19.234C28.505 19.234 27.56 19.57 26.804 19.927C26.615 20.011 26.531 19.969 26.468 19.78L26.195 19.108C26.111 18.919 26.153 18.835 26.342 18.73C27.266 18.268 28.379 17.911 29.723 17.911C31.781 17.911 32.81 18.835 32.81 20.935V24.442C32.81 24.799 32.852 24.925 33.062 25.156L33.566 25.66C33.692 25.786 33.671 25.933 33.545 26.038ZM29.198 25.555C29.87 25.555 30.437 25.387 31.256 24.82V22.468H29.576C28.022 22.468 27.518 23.035 27.518 24.001C27.518 24.946 28.085 25.555 29.198 25.555ZM35.6375 26.29V18.331C35.6375 18.205 35.7215 18.121 35.8265 18.121H36.9815C37.1075 18.121 37.1705 18.205 37.1705 18.331V19.276C37.8005 18.478 38.5355 17.911 39.6275 17.911C40.0685 17.911 40.4885 17.953 40.7615 18.079C40.9505 18.163 40.9295 18.247 40.8875 18.415L40.6565 19.297C40.6145 19.486 40.4885 19.486 40.2995 19.444C40.0265 19.36 39.6695 19.297 39.2075 19.297C38.3465 19.297 37.7585 19.675 37.1705 20.347V26.29C37.1705 26.416 37.1075 26.5 36.9815 26.5H35.8265C35.7215 26.5 35.6375 26.416 35.6375 26.29Z" fill="#008236"/>
</svg>
