<svg width="81" height="40" viewBox="0 0 81 40" fill="none" xmlns="http://www.w3.org/2000/svg">
<path d="M0 20C0 8.95431 8.9543 0 20 0H60.0234C71.0691 0 80.0234 8.95431 80.0234 20C80.0234 31.0457 71.0691 40 60.0234 40H20C8.95431 40 0 31.0457 0 20Z" fill="#DCFCE7"/>
<path d="M16.735 23.135C20.368 20.342 21.376 19.313 21.376 18.053C21.376 17.339 20.935 16.373 19.465 16.373C18.562 16.373 17.869 16.709 17.239 17.045C17.05 17.15 16.966 17.087 16.882 16.919L16.588 16.184C16.525 16.016 16.525 15.911 16.693 15.848C17.449 15.407 18.478 15.071 19.717 15.071C21.754 15.071 22.951 16.184 22.951 17.843C22.951 19.691 21.439 21.014 18.541 23.24H23.224C23.35 23.24 23.434 23.303 23.434 23.429V24.311C23.434 24.416 23.35 24.5 23.224 24.5H16.756C16.63 24.5 16.546 24.416 16.546 24.311V23.597C16.546 23.345 16.588 23.24 16.735 23.135ZM29.1836 24.71C26.6636 24.71 25.0046 22.988 25.0046 19.88C25.0046 16.772 26.6636 15.071 29.1836 15.071C31.7036 15.071 33.3626 16.772 33.3626 19.88C33.3626 22.988 31.7036 24.71 29.1836 24.71ZM29.1836 23.408C30.8216 23.408 31.7456 22.106 31.7456 19.88C31.7456 17.675 30.8216 16.373 29.1836 16.373C27.5456 16.373 26.6216 17.675 26.6216 19.88C26.6216 22.106 27.5456 23.408 29.1836 23.408ZM39.7595 24.29V16.331C39.7595 16.205 39.8435 16.121 39.9485 16.121H41.1035C41.2295 16.121 41.2925 16.205 41.2925 16.331V17.213C42.0905 16.415 43.0355 15.911 44.1485 15.911C45.3875 15.911 46.2695 16.394 46.6895 17.381C47.5505 16.478 48.5585 15.911 49.7975 15.911C51.6035 15.911 52.6325 16.919 52.6325 18.977V24.29C52.6325 24.416 52.5695 24.5 52.4435 24.5H51.2885C51.1625 24.5 51.0995 24.416 51.0995 24.311V19.292C51.0995 17.948 50.5535 17.276 49.3985 17.276C48.4955 17.276 47.7185 17.738 46.9415 18.473C46.9625 18.641 46.9625 18.809 46.9625 18.977V24.29C46.9625 24.416 46.8995 24.5 46.7735 24.5H45.6185C45.4925 24.5 45.4295 24.416 45.4295 24.311V19.292C45.4295 17.948 44.8835 17.276 43.7285 17.276C42.8255 17.276 42.0695 17.738 41.2925 18.452V24.29C41.2925 24.416 41.2295 24.5 41.1035 24.5H39.9485C39.8435 24.5 39.7595 24.416 39.7595 24.29ZM55.9989 14.042C55.4529 14.042 55.0539 13.622 55.0539 13.055C55.0539 12.53 55.4529 12.11 55.9989 12.11C56.5659 12.11 56.9859 12.53 56.9859 13.055C56.9859 13.622 56.5659 14.042 55.9989 14.042ZM55.2429 24.29V16.331C55.2429 16.205 55.3479 16.121 55.4529 16.121H56.5659C56.7129 16.121 56.7759 16.205 56.7759 16.331V24.29C56.7759 24.416 56.7129 24.5 56.5659 24.5H55.4529C55.3479 24.5 55.2429 24.416 55.2429 24.29ZM59.5086 24.29V16.331C59.5086 16.205 59.5926 16.121 59.6976 16.121H60.8526C60.9786 16.121 61.0416 16.205 61.0416 16.331V17.213C61.8816 16.394 62.9106 15.911 64.1076 15.911C66.0186 15.911 67.1316 16.919 67.1316 18.977V24.29C67.1316 24.416 67.0686 24.5 66.9426 24.5H65.7876C65.6616 24.5 65.5986 24.416 65.5986 24.311V19.292C65.5986 17.948 64.9896 17.276 63.6876 17.276C62.7006 17.276 61.8816 17.717 61.0416 18.473V24.29C61.0416 24.416 60.9786 24.5 60.8526 24.5H59.6976C59.5926 24.5 59.5086 24.416 59.5086 24.29Z" fill="#008236"/>
</svg>
