<svg width="81" height="40" viewBox="0 0 81 40" fill="none" xmlns="http://www.w3.org/2000/svg">
<path d="M0 20C0 8.95431 8.9543 0 20 0H60.9375C71.9832 0 80.9375 8.95431 80.9375 20C80.9375 31.0457 71.9832 40 60.9375 40H20C8.9543 40 0 31.0457 0 20Z" fill="#DCFCE7"/>
<path d="M16.735 23.135C20.368 20.342 21.376 19.313 21.376 18.053C21.376 17.339 20.935 16.373 19.465 16.373C18.562 16.373 17.869 16.709 17.239 17.045C17.05 17.15 16.966 17.087 16.882 16.919L16.588 16.184C16.525 16.016 16.525 15.911 16.693 15.848C17.449 15.407 18.478 15.071 19.717 15.071C21.754 15.071 22.951 16.184 22.951 17.843C22.951 19.691 21.439 21.014 18.541 23.24H23.224C23.35 23.24 23.434 23.303 23.434 23.429V24.311C23.434 24.416 23.35 24.5 23.224 24.5H16.756C16.63 24.5 16.546 24.416 16.546 24.311V23.597C16.546 23.345 16.588 23.24 16.735 23.135ZM37.0236 24.29C37.0236 24.416 36.9396 24.5 36.8346 24.5H35.6796C35.5536 24.5 35.4906 24.416 35.4906 24.29V23.534C34.7556 24.269 33.8736 24.71 32.6136 24.71C30.3666 24.71 29.0436 23.198 29.0436 20.3C29.0436 17.528 30.3456 15.911 32.6346 15.911C33.6636 15.911 34.7136 16.268 35.4906 16.94V10.43C35.4906 10.304 35.5536 10.22 35.6796 10.22H36.8346C36.9396 10.22 37.0236 10.304 37.0236 10.43V24.29ZM32.9706 17.213C31.3326 17.213 30.6606 18.41 30.6606 20.3C30.6606 22.19 31.3536 23.408 32.9916 23.408C33.8736 23.408 34.6926 23.051 35.4906 22.19V18.305C34.6506 17.549 33.9366 17.213 32.9706 17.213ZM46.752 24.038L46.164 24.542C45.996 24.689 45.744 24.71 45.513 24.5L44.82 23.744C43.749 24.521 42.972 24.668 42.048 24.668C40.368 24.668 39.213 23.744 39.213 22.043C39.213 20.678 40.137 19.586 42.489 19.586H44.463V19.061C44.463 17.759 43.959 17.234 42.699 17.234C41.712 17.234 40.767 17.57 40.011 17.927C39.822 18.011 39.738 17.969 39.675 17.78L39.402 17.108C39.318 16.919 39.36 16.835 39.549 16.73C40.473 16.268 41.586 15.911 42.93 15.911C44.988 15.911 46.017 16.835 46.017 18.935V22.442C46.017 22.799 46.059 22.925 46.269 23.156L46.773 23.66C46.899 23.786 46.878 23.933 46.752 24.038ZM42.405 23.555C43.077 23.555 43.644 23.387 44.463 22.82V20.468H42.783C41.229 20.468 40.725 21.035 40.725 22.001C40.725 22.946 41.292 23.555 42.405 23.555ZM52.2045 22.295C51.6165 22.295 51.0705 22.211 50.6085 22.085C50.0625 22.421 49.9575 22.82 49.9575 23.156C49.9575 23.681 50.3355 24.038 51.0495 24.038H53.3805C55.6905 24.038 56.8245 24.878 56.8245 26.474C56.8245 28.469 54.8505 29.96 51.8475 29.96C49.3905 29.96 48.0465 28.931 48.0465 27.482C48.0465 26.453 48.6765 25.697 49.7895 25.214C49.0755 24.941 48.6135 24.353 48.6135 23.492C48.6135 22.799 48.9915 22.169 49.8315 21.749C48.9075 21.203 48.4035 20.3 48.4035 19.082C48.4035 17.087 49.8315 15.911 52.2045 15.911C52.5825 15.911 52.9395 15.932 53.2755 15.995L53.4015 15.617C53.8215 14.441 54.6825 14 55.7745 14H56.0055C56.1315 14 56.2155 14.084 56.2155 14.231V14.945C56.2155 15.092 56.1315 15.176 56.0055 15.176H55.7115C54.9975 15.176 54.6195 15.302 54.2835 15.995L54.1365 16.247C55.3335 16.73 56.0055 17.717 56.0055 19.082C56.0055 21.119 54.5565 22.295 52.2045 22.295ZM52.2255 21.182C53.5905 21.182 54.4515 20.426 54.4515 19.082C54.4515 17.78 53.5905 17.003 52.2255 17.003C50.8185 17.003 49.9575 17.78 49.9575 19.082C49.9575 20.426 50.8185 21.182 52.2255 21.182ZM49.4745 27.293C49.4745 28.259 50.3565 28.91 52.0575 28.91C54.0315 28.91 55.3335 27.965 55.3335 26.747C55.3335 25.802 54.6825 25.382 53.0445 25.382H50.9865C49.9575 25.886 49.4745 26.495 49.4745 27.293ZM65.3805 23.996C64.4985 24.5 63.1965 24.71 62.1675 24.71C59.2065 24.71 57.5475 23.009 57.5475 20.3C57.5475 17.591 59.1645 15.911 61.6845 15.911C63.9105 15.911 65.3805 17.402 65.3805 19.628C65.3805 19.796 65.3805 20.111 65.3385 20.279C65.3175 20.468 65.2545 20.51 65.1075 20.51H59.1225C59.2275 22.337 60.3615 23.471 62.3145 23.471C63.1965 23.471 64.2045 23.177 64.8765 22.862C65.0655 22.778 65.1495 22.82 65.2335 23.009L65.4855 23.702C65.5485 23.849 65.5275 23.933 65.3805 23.996ZM61.6635 17.108C60.3195 17.108 59.3745 18.095 59.1645 19.607H63.9315C63.8265 17.906 62.9865 17.108 61.6635 17.108Z" fill="#008236"/>
</svg>
