<svg width="78" height="40" viewBox="0 0 78 40" fill="none" xmlns="http://www.w3.org/2000/svg">
<path d="M0 20C0 8.95431 8.9543 0 20 0H57.3672C68.4129 0 77.3672 8.95431 77.3672 20C77.3672 31.0457 68.4129 40 57.3672 40H20C8.95431 40 0 31.0457 0 20Z" fill="#DCFCE7"/>
<path d="M16.735 23.135C20.368 20.342 21.376 19.313 21.376 18.053C21.376 17.339 20.935 16.373 19.465 16.373C18.562 16.373 17.869 16.709 17.239 17.045C17.05 17.15 16.966 17.087 16.882 16.919L16.588 16.184C16.525 16.016 16.525 15.911 16.693 15.848C17.449 15.407 18.478 15.071 19.717 15.071C21.754 15.071 22.951 16.184 22.951 17.843C22.951 19.691 21.439 21.014 18.541 23.24H23.224C23.35 23.24 23.434 23.303 23.434 23.429V24.311C23.434 24.416 23.35 24.5 23.224 24.5H16.756C16.63 24.5 16.546 24.416 16.546 24.311V23.597C16.546 23.345 16.588 23.24 16.735 23.135ZM29.5896 16.121H30.7446C30.8706 16.121 30.9336 16.184 30.9336 16.31V21.308C30.9336 22.757 31.6056 23.345 32.8656 23.345C33.7686 23.345 34.5036 22.988 35.2596 22.421V16.331C35.2596 16.205 35.3436 16.121 35.4696 16.121H36.6246C36.7296 16.121 36.8136 16.205 36.8136 16.331V24.29C36.8136 24.416 36.7296 24.5 36.6246 24.5H35.4696C35.3436 24.5 35.2596 24.416 35.2596 24.29V23.597C34.4826 24.269 33.5586 24.71 32.3826 24.71C30.5766 24.71 29.3796 23.744 29.3796 21.665V16.31C29.3796 16.205 29.4636 16.121 29.5896 16.121ZM42.8939 22.295C42.3059 22.295 41.7599 22.211 41.2979 22.085C40.7519 22.421 40.6469 22.82 40.6469 23.156C40.6469 23.681 41.0249 24.038 41.7389 24.038H44.0699C46.3799 24.038 47.5139 24.878 47.5139 26.474C47.5139 28.469 45.5399 29.96 42.5369 29.96C40.0799 29.96 38.7359 28.931 38.7359 27.482C38.7359 26.453 39.3659 25.697 40.4789 25.214C39.7649 24.941 39.3029 24.353 39.3029 23.492C39.3029 22.799 39.6809 22.169 40.5209 21.749C39.5969 21.203 39.0929 20.3 39.0929 19.082C39.0929 17.087 40.5209 15.911 42.8939 15.911C43.2719 15.911 43.6289 15.932 43.9649 15.995L44.0909 15.617C44.5109 14.441 45.3719 14 46.4639 14H46.6949C46.8209 14 46.9049 14.084 46.9049 14.231V14.945C46.9049 15.092 46.8209 15.176 46.6949 15.176H46.4009C45.6869 15.176 45.3089 15.302 44.9729 15.995L44.8259 16.247C46.0229 16.73 46.6949 17.717 46.6949 19.082C46.6949 21.119 45.2459 22.295 42.8939 22.295ZM42.9149 21.182C44.2799 21.182 45.1409 20.426 45.1409 19.082C45.1409 17.78 44.2799 17.003 42.9149 17.003C41.5079 17.003 40.6469 17.78 40.6469 19.082C40.6469 20.426 41.5079 21.182 42.9149 21.182ZM40.1639 27.293C40.1639 28.259 41.0459 28.91 42.7469 28.91C44.7209 28.91 46.0229 27.965 46.0229 26.747C46.0229 25.802 45.3719 25.382 43.7339 25.382H41.6759C40.6469 25.886 40.1639 26.495 40.1639 27.293ZM56.07 23.996C55.188 24.5 53.886 24.71 52.857 24.71C49.896 24.71 48.237 23.009 48.237 20.3C48.237 17.591 49.854 15.911 52.374 15.911C54.6 15.911 56.07 17.402 56.07 19.628C56.07 19.796 56.07 20.111 56.028 20.279C56.007 20.468 55.944 20.51 55.797 20.51H49.812C49.917 22.337 51.051 23.471 53.004 23.471C53.886 23.471 54.894 23.177 55.566 22.862C55.755 22.778 55.839 22.82 55.923 23.009L56.175 23.702C56.238 23.849 56.217 23.933 56.07 23.996ZM52.353 17.108C51.009 17.108 50.064 18.095 49.854 19.607H54.621C54.516 17.906 53.676 17.108 52.353 17.108ZM58.3191 24.29V16.331C58.3191 16.205 58.4031 16.121 58.5081 16.121H59.6631C59.7891 16.121 59.8521 16.205 59.8521 16.331V17.276C60.4821 16.478 61.2171 15.911 62.3091 15.911C62.7501 15.911 63.1701 15.953 63.4431 16.079C63.6321 16.163 63.6111 16.247 63.5691 16.415L63.3381 17.297C63.2961 17.486 63.1701 17.486 62.9811 17.444C62.7081 17.36 62.3511 17.297 61.8891 17.297C61.0281 17.297 60.4401 17.675 59.8521 18.347V24.29C59.8521 24.416 59.7891 24.5 59.6631 24.5H58.5081C58.4031 24.5 58.3191 24.416 58.3191 24.29Z" fill="#008236"/>
</svg>
