<svg width="56" height="56" viewBox="0 0 56 56" fill="none" xmlns="http://www.w3.org/2000/svg">
<path d="M0 28C0 12.536 12.536 0 28 0C43.464 0 56 12.536 56 28C56 43.464 43.464 56 28 56C12.536 56 0 43.464 0 28Z" fill="#DBEAFE"/>
<path d="M39.6663 33.8333C39.6663 34.4522 39.4205 35.0457 38.9829 35.4832C38.5453 35.9208 37.9518 36.1667 37.333 36.1667H21.9657C21.3469 36.1668 20.7535 36.4127 20.316 36.8503L17.747 39.4193C17.6312 39.5352 17.4836 39.614 17.3229 39.646C17.1622 39.6779 16.9957 39.6615 16.8444 39.5988C16.693 39.5362 16.5637 39.43 16.4726 39.2938C16.3816 39.1576 16.333 38.9975 16.333 38.8337V19.8333C16.333 19.2145 16.5788 18.621 17.0164 18.1834C17.454 17.7458 18.0475 17.5 18.6663 17.5H37.333C37.9518 17.5 38.5453 17.7458 38.9829 18.1834C39.4205 18.621 39.6663 19.2145 39.6663 19.8333V33.8333Z" stroke="#155DFC" stroke-width="2.33333" stroke-linecap="round" stroke-linejoin="round"/>
</svg>
