<svg width="64" height="64" viewBox="0 0 64 64" fill="none" xmlns="http://www.w3.org/2000/svg">
<path d="M0 32C0 14.3269 14.3269 0 32 0C49.6731 0 64 14.3269 64 32C64 49.6731 49.6731 64 32 64C14.3269 64 0 49.6731 0 32Z" fill="url(#paint0_linear_18_2823)"/>
<path d="M19.9892 37.7893C20.1853 38.2839 20.2289 38.8258 20.1146 39.3453L18.6946 43.732C18.6488 43.9545 18.6607 44.1849 18.7289 44.4015C18.7972 44.6181 18.9197 44.8137 19.0848 44.9697C19.2499 45.1257 19.4521 45.2369 19.6722 45.2929C19.8923 45.3488 20.1231 45.3476 20.3426 45.2893L24.8932 43.9587C25.3835 43.8614 25.8913 43.9039 26.3586 44.0813C29.2058 45.411 32.4311 45.6923 35.4654 44.8756C38.4998 44.059 41.1483 42.1969 42.9435 39.6178C44.7388 37.0388 45.5654 33.9086 45.2776 30.7794C44.9899 27.6503 43.6062 24.7233 41.3707 22.5149C39.1352 20.3066 36.1915 18.9587 33.0591 18.7092C29.9267 18.4597 26.8068 19.3245 24.2498 21.1511C21.6929 22.9777 19.8633 25.6487 19.0838 28.6929C18.3043 31.737 18.6249 34.9586 19.9892 37.7893Z" stroke="white" stroke-width="2.66667" stroke-linecap="round" stroke-linejoin="round"/>
<defs>
<linearGradient id="paint0_linear_18_2823" x1="0" y1="0" x2="64" y2="64" gradientUnits="userSpaceOnUse">
<stop stop-color="#00C950"/>
<stop offset="1" stop-color="#00BC7D"/>
</linearGradient>
</defs>
</svg>
