<svg width="48" height="48" viewBox="0 0 48 48" fill="none" xmlns="http://www.w3.org/2000/svg">
<path d="M34 24H6C5.46957 24 4.96086 24.2107 4.58579 24.5858C4.21071 24.9609 4 25.4696 4 26V30C4 30.5304 4.21071 31.0391 4.58579 31.4142C4.96086 31.7893 5.46957 32 6 32H34" stroke="white" stroke-width="4" stroke-linecap="round" stroke-linejoin="round"/>
<path d="M36 16C36 11 32 11 32 6" stroke="white" stroke-width="4" stroke-linecap="round" stroke-linejoin="round"/>
<path d="M42 32C42.5304 32 43.0391 31.7893 43.4142 31.4142C43.7893 31.0391 44 30.5304 44 30V26C44 25.4696 43.7893 24.9609 43.4142 24.5858C43.0391 24.2107 42.5304 24 42 24" stroke="white" stroke-width="4" stroke-linecap="round" stroke-linejoin="round"/>
<path d="M44 16C44 11 40 11 40 6" stroke="white" stroke-width="4" stroke-linecap="round" stroke-linejoin="round"/>
<path d="M14 24V32" stroke="white" stroke-width="4" stroke-linecap="round" stroke-linejoin="round"/>
</svg>
