<svg width="55" height="50" viewBox="0 0 55 50" fill="none" xmlns="http://www.w3.org/2000/svg">
<g clip-path="url(#clip0_86_253)">
<path d="M27.4997 47.9166C40.1562 47.9166 50.4163 37.6564 50.4163 24.9999C50.4163 12.3434 40.1562 2.08325 27.4997 2.08325C14.8431 2.08325 4.58301 12.3434 4.58301 24.9999C4.58301 37.6564 14.8431 47.9166 27.4997 47.9166Z" stroke="#155DFC" stroke-width="3.33333" stroke-linecap="round" stroke-linejoin="round"/>
<path d="M20.8311 18.7502C21.3698 17.3579 22.4333 16.1838 23.833 15.4359C25.2328 14.688 26.8785 14.4147 28.4788 14.6642C30.079 14.9137 31.5304 15.6701 32.576 16.7992C33.6216 17.9284 34.1939 19.3575 34.1915 20.8335C34.1915 25.0002 27.3165 27.0835 27.3165 27.0835" stroke="#155DFC" stroke-width="3.33333" stroke-linecap="round" stroke-linejoin="round"/>
<path d="M27.5 35.4167H27.522" stroke="#155DFC" stroke-width="3.33333" stroke-linecap="round" stroke-linejoin="round"/>
</g>
<defs>
<clipPath id="clip0_86_253">
<rect width="55" height="50" fill="white"/>
</clipPath>
</defs>
</svg>
