<svg width="64" height="64" viewBox="0 0 64 64" fill="none" xmlns="http://www.w3.org/2000/svg">
<path d="M5.33301 25.3333C5.33306 22.3658 6.23326 19.4682 7.9147 17.023C9.59614 14.5779 11.9797 12.7004 14.7506 11.6383C17.5215 10.5763 20.5494 10.3798 23.4344 11.0747C26.3193 11.7697 28.9256 13.3234 30.909 15.5306C31.0487 15.68 31.2176 15.7991 31.4052 15.8805C31.5928 15.9619 31.7952 16.0039 31.9997 16.0039C32.2042 16.0039 32.4065 15.9619 32.5941 15.8805C32.7818 15.7991 32.9506 15.68 33.0903 15.5306C35.0675 13.309 37.6744 11.7423 40.564 11.0389C43.4537 10.3355 46.489 10.5289 49.266 11.5932C52.043 12.6576 54.43 14.5425 56.1093 16.997C57.7886 19.4515 58.6805 22.3593 58.6663 25.3333C58.6663 31.4399 54.6663 35.9999 50.6663 39.9999L36.021 54.1679C35.5241 54.7386 34.9115 55.197 34.2238 55.5127C33.5361 55.8284 32.7891 55.9942 32.0324 55.999C31.2758 56.0038 30.5267 55.8475 29.8351 55.5405C29.1435 55.2336 28.5251 54.783 28.021 54.2186L13.333 39.9999C9.33301 35.9999 5.33301 31.4666 5.33301 25.3333Z" stroke="#2B7FFF" stroke-width="5.33333" stroke-linecap="round" stroke-linejoin="round"/>
</svg>
