<svg width="56" height="56" viewBox="0 0 56 56" fill="none" xmlns="http://www.w3.org/2000/svg">
<path d="M0 28C0 12.536 12.536 0 28 0C43.464 0 56 12.536 56 28C56 43.464 43.464 56 28 56C12.536 56 0 43.464 0 28Z" fill="#DBEAFE"/>
<path d="M16.333 25.0833C16.333 23.7851 16.7269 22.5174 17.4625 21.4476C18.1981 20.3779 19.2409 19.5564 20.4532 19.0918C21.6655 18.6272 22.9902 18.5412 24.2524 18.8452C25.5145 19.1493 26.6548 19.829 27.5225 20.7947C27.5836 20.86 27.6575 20.9121 27.7396 20.9477C27.8217 20.9834 27.9102 21.0017 27.9997 21.0017C28.0891 21.0017 28.1777 20.9834 28.2598 20.9477C28.3418 20.9121 28.4157 20.86 28.4768 20.7947C29.3419 19.8227 30.4824 19.1373 31.7466 18.8295C33.0108 18.5218 34.3387 18.6064 35.5537 19.0721C36.7686 19.5377 37.813 20.3624 38.5476 21.4362C39.2823 22.5101 39.6725 23.7822 39.6663 25.0833C39.6663 27.755 37.9163 29.75 36.1663 31.5L29.759 37.6985C29.5416 37.9482 29.2736 38.1487 28.9727 38.2869C28.6719 38.425 28.3451 38.4975 28.014 38.4996C27.683 38.5017 27.3553 38.4333 27.0527 38.299C26.7501 38.1647 26.4795 37.9676 26.259 37.7207L19.833 31.5C18.083 29.75 16.333 27.7667 16.333 25.0833Z" stroke="#155DFC" stroke-width="2.33333" stroke-linecap="round" stroke-linejoin="round"/>
</svg>
