<svg width="28" height="28" viewBox="0 0 28 28" fill="none" xmlns="http://www.w3.org/2000/svg">
<path d="M14 21V5.83337" stroke="#155DFC" stroke-width="2.33333" stroke-linecap="round" stroke-linejoin="round"/>
<path d="M17.5 15.1667C16.4906 14.8716 15.604 14.2574 14.973 13.4161C14.342 12.5748 14.0006 11.5516 14 10.5C13.9994 11.5516 13.658 12.5748 13.027 13.4161C12.396 14.2574 11.5094 14.8716 10.5 15.1667" stroke="#155DFC" stroke-width="2.33333" stroke-linecap="round" stroke-linejoin="round"/>
<path d="M20.531 7.58341C20.7995 7.11848 20.9574 6.59802 20.9925 6.0623C21.0276 5.52658 20.9391 4.98996 20.7336 4.49395C20.5282 3.99794 20.2114 3.55584 19.8077 3.20185C19.4041 2.84786 18.9245 2.59147 18.4059 2.45251C17.8873 2.31356 17.3437 2.29577 16.8172 2.40051C16.2906 2.50525 15.7952 2.72972 15.3693 3.05656C14.9434 3.38339 14.5983 3.80383 14.3609 4.28534C14.1235 4.76686 14 5.29654 14 5.83341C14 5.29654 13.8765 4.76686 13.6391 4.28534C13.4017 3.80383 13.0566 3.38339 12.6307 3.05656C12.2048 2.72972 11.7094 2.50525 11.1828 2.40051C10.6563 2.29577 10.1127 2.31356 9.59412 2.45251C9.07554 2.59147 8.59589 2.84786 8.19225 3.20185C7.78861 3.55584 7.47182 3.99794 7.26639 4.49395C7.06095 4.98996 6.97237 5.52658 7.0075 6.0623C7.04264 6.59802 7.20054 7.11848 7.469 7.58341" stroke="#155DFC" stroke-width="2.33333" stroke-linecap="round" stroke-linejoin="round"/>
<path d="M20.9961 5.97913C21.6819 6.15545 22.3185 6.48552 22.8578 6.94432C23.3971 7.40313 23.825 7.97864 24.1089 8.62728C24.3929 9.27592 24.5255 9.98067 24.4968 10.6882C24.4681 11.3956 24.2787 12.0873 23.9431 12.7108" stroke="#155DFC" stroke-width="2.33333" stroke-linecap="round" stroke-linejoin="round"/>
<path d="M21 21C22.0273 20.9999 23.0258 20.661 23.8408 20.0356C24.6557 19.4102 25.2416 18.5334 25.5074 17.5412C25.7733 16.5489 25.7044 15.4967 25.3113 14.5476C24.9182 13.5985 24.2229 12.8057 23.3333 12.292" stroke="#155DFC" stroke-width="2.33333" stroke-linecap="round" stroke-linejoin="round"/>
<path d="M23.2952 20.3969C23.3769 21.0295 23.3281 21.6721 23.1518 22.2851C22.9754 22.8981 22.6753 23.4685 22.2699 23.961C21.8645 24.4534 21.3624 24.8576 20.7947 25.1484C20.227 25.4392 19.6057 25.6106 18.9692 25.6519C18.3327 25.6932 17.6944 25.6036 17.0939 25.3886C16.4933 25.1735 15.9433 24.8377 15.4776 24.4017C15.012 23.9658 14.6406 23.439 14.3865 22.8539C14.1324 22.2688 14.001 21.6379 14.0003 21C13.9996 21.6379 13.8682 22.2688 13.6141 22.8539C13.36 23.439 12.9887 23.9658 12.523 24.4017C12.0574 24.8377 11.5073 25.1735 10.9068 25.3886C10.3062 25.6036 9.66799 25.6932 9.03146 25.6519C8.39493 25.6106 7.77362 25.4392 7.20591 25.1484C6.6382 24.8576 6.13614 24.4534 5.73074 23.961C5.32534 23.4685 5.0252 22.8981 4.84886 22.2851C4.67252 21.6721 4.62373 21.0295 4.70549 20.3969" stroke="#155DFC" stroke-width="2.33333" stroke-linecap="round" stroke-linejoin="round"/>
<path d="M7.00045 21C5.97319 20.9999 4.97465 20.661 4.15969 20.0356C3.34473 19.4102 2.75888 18.5334 2.493 17.5412C2.22713 16.5489 2.29608 15.4967 2.68917 14.5476C3.08225 13.5985 3.77751 12.8057 4.66711 12.292" stroke="#155DFC" stroke-width="2.33333" stroke-linecap="round" stroke-linejoin="round"/>
<path d="M7.00358 5.97913C6.31782 6.15545 5.68117 6.48552 5.14185 6.94432C4.60253 7.40313 4.17469 7.97864 3.89073 8.62728C3.60677 9.27592 3.47413 9.98067 3.50287 10.6882C3.5316 11.3956 3.72095 12.0873 4.05658 12.7108" stroke="#155DFC" stroke-width="2.33333" stroke-linecap="round" stroke-linejoin="round"/>
</svg>
