<svg width="56" height="56" viewBox="0 0 56 56" fill="none" xmlns="http://www.w3.org/2000/svg">
<path d="M0 28C0 12.536 12.536 0 28 0C43.464 0 56 12.536 56 28C56 43.464 43.464 56 28 56C12.536 56 0 43.464 0 28Z" fill="#DBEAFE"/>
<path d="M37.3327 29.1666C37.3327 35 33.2493 37.9166 28.396 39.6083C28.1419 39.6944 27.8658 39.6903 27.6143 39.5966C22.7493 37.9166 18.666 35 18.666 29.1666V21C18.666 20.6905 18.7889 20.3938 19.0077 20.175C19.2265 19.9562 19.5233 19.8333 19.8327 19.8333C22.166 19.8333 25.0827 18.4333 27.1127 16.66C27.3598 16.4488 27.6743 16.3328 27.9993 16.3328C28.3244 16.3328 28.6389 16.4488 28.886 16.66C30.9277 18.445 33.8327 19.8333 36.166 19.8333C36.4754 19.8333 36.7722 19.9562 36.991 20.175C37.2098 20.3938 37.3327 20.6905 37.3327 21V29.1666Z" stroke="#155DFC" stroke-width="2.33333" stroke-linecap="round" stroke-linejoin="round"/>
</svg>
